<svg xmlns="http://www.w3.org/2000/svg" viewBox="0 0 547 83">
  <defs><style>.cls-1{fill:#fff;fill-rule:evenodd;}</style></defs>
  <path class="cls-1" d="M67.4,1.8A3.25,3.25,0,0,0,65,.8H3.4A3.1,3.1,0,0,0,1,1.8,3.41,3.41,0,0,0,0,4.2v41a24.58,24.58,0,0,0,1.8,9.1,32.33,32.33,0,0,0,4.4,8,44.2,44.2,0,0,0,6.3,6.8,58.68,58.68,0,0,0,6.8,5.5c2,1.4,4.3,2.8,6.5,4.1s3.8,2.2,4.7,2.6,1.7.8,2.2,1.1a3.42,3.42,0,0,0,2.8,0,21.66,21.66,0,0,0,2.3-1.1c.9-.5,2.5-1.3,4.7-2.6S46.9,76,49,74.6a68.56,68.56,0,0,0,6.8-5.5,49.81,49.81,0,0,0,6.3-6.8,36,36,0,0,0,4.4-8,24.58,24.58,0,0,0,1.8-9.1V4.2A2.93,2.93,0,0,0,67.4,1.8ZM59.5,45.6c0,14.9-25.3,27.7-25.3,27.7V9.6H59.5Z"/>
  <text x="90" y="60" font-family="'Segoe UI', 'Helvetica Neue', Arial, sans-serif" font-size="52" font-weight="600" fill="#fff">TideWarden</text>
</svg>
