<svg width="582" height="415" fill="none" xmlns="http://www.w3.org/2000/svg">
  <path fill-rule="evenodd" clip-rule="evenodd" d="M362.911 166.879V81.183c0-1.934-.705-3.608-2.116-5.021-1.411-1.414-3.082-2.12-5.014-2.12H227.443c-1.931 0-3.602.706-5.013 2.12-1.411 1.413-2.117 3.087-2.117 5.02v85.697c0 6.397 1.244 12.739 3.733 19.025 2.488 6.286 5.57 11.865 9.246 16.737 3.676 4.873 8.058 9.615 13.146 14.227 5.087 4.612 9.785 8.443 14.093 11.493a177.162 177.162 0 0 0 13.48 8.648c4.679 2.715 8.002 4.556 9.97 5.523 1.968.967 3.547 1.711 4.735 2.232a6.381 6.381 0 0 0 2.896.669c1.04 0 2.006-.223 2.897-.669 1.188-.521 2.767-1.265 4.735-2.232 1.968-.967 5.291-2.808 9.97-5.523a177.162 177.162 0 0 0 13.48-8.648c4.308-3.05 9.006-6.881 14.093-11.493 5.088-4.612 9.469-9.354 13.146-14.227 3.676-4.872 6.758-10.451 9.246-16.737 2.488-6.286 3.732-12.628 3.732-19.025Zm-21.389-71.413v71.413c0 13.092-8.727 26.482-26.18 40.17-6.982 5.504-14.891 10.6-23.73 15.287V95.466h49.91Z" fill="#175DDC"/>
  <text x="291" y="350" text-anchor="middle" font-family="'Segoe UI', 'Helvetica Neue', Arial, sans-serif" font-size="58" font-weight="600" fill="#175DDC">TideWarden</text>
</svg>
